<svg width="20" height="20" viewBox="0 0 20 20" fill="none" xmlns="http://www.w3.org/2000/svg">
<path d="M18.4004 0H1.70892C0.796871 0 0 0.656247 0 1.55758V18.2861C0 19.1923 0.796871 19.9999 1.70892 19.9999H18.3954C19.3124 19.9999 19.9999 19.187 19.9999 18.2861V1.55758C20.0053 0.656247 19.3124 0 18.4004 0ZM6.19952 16.6709H3.33436V7.76246H6.19952V16.6709ZM4.86605 6.408H4.84551C3.92855 6.408 3.3348 5.72542 3.3348 4.87096C3.3348 4.00087 3.94418 3.33436 4.88167 3.33436C5.81917 3.33436 6.39283 3.99596 6.41336 4.87096C6.41291 5.72542 5.81917 6.408 4.86605 6.408ZM16.6709 16.6709H13.8057V11.7999C13.8057 10.633 13.3888 9.83567 12.3522 9.83567C11.5602 9.83567 11.0915 10.3714 10.883 10.8933C10.8049 11.0807 10.7839 11.3361 10.7839 11.5968V16.6709H7.91871V7.76246H10.7839V9.00219C11.2008 8.40844 11.8522 7.55398 13.3678 7.55398C15.2486 7.55398 16.6713 8.79371 16.6713 11.4665L16.6709 16.6709Z" fill="white"/>
</svg>
