<svg width="65" height="81" viewBox="0 0 65 81" fill="none" xmlns="http://www.w3.org/2000/svg">
<path d="M64.5 42.5C64.5 60.4565 50.1659 75 32.5 75C14.8341 75 0.5 60.4565 0.5 42.5C0.5 24.5435 14.8341 10 32.5 10C50.1659 10 64.5 24.5435 64.5 42.5Z" fill="#FFE6A5" stroke="#1C1F35"/>
<path d="M48.5 14C48.5 21.1627 42.4731 27 35 27C27.5269 27 21.5 21.1627 21.5 14C21.5 6.83728 27.5269 1 35 1C42.4731 1 48.5 6.83728 48.5 14Z" fill="#FFE6A5" stroke="#1C1F35"/>
<path d="M60.5 67C60.5 74.1627 54.4731 80 47 80C39.5269 80 33.5 74.1627 33.5 67C33.5 59.8373 39.5269 54 47 54C54.4731 54 60.5 59.8373 60.5 67Z" fill="#FFE6A5" stroke="#1C1F35"/>
<path d="M35.026 21.4304C39.012 21.4304 42.2434 18.1991 42.2434 14.213C42.2434 10.2269 39.012 6.99561 35.026 6.99561C31.0399 6.99561 27.8086 10.2269 27.8086 14.213C27.8086 18.1991 31.0399 21.4304 35.026 21.4304Z" stroke="#1C1F35" stroke-linecap="round" stroke-linejoin="round"/>
<path d="M28.3638 11.9922H41.6882" stroke="#1C1F35" stroke-linecap="round" stroke-linejoin="round"/>
<path d="M28.3638 16.4337H41.6882" stroke="#1C1F35" stroke-linecap="round" stroke-linejoin="round"/>
<path d="M35.0259 20.8752C36.559 20.8752 37.8018 17.8924 37.8018 14.213C37.8018 10.5336 36.559 7.55078 35.0259 7.55078C33.4928 7.55078 32.25 10.5336 32.25 14.213C32.25 17.8924 33.4928 20.8752 35.0259 20.8752Z" stroke="#1C1F35" stroke-linecap="round" stroke-linejoin="round"/>
<path d="M53.513 70.8391V64.1787C53.5125 64.0825 53.4866 63.9881 53.4379 63.9051C53.3892 63.8221 53.3194 63.7533 53.2356 63.7058L47.2813 60.3621C47.201 60.3158 47.11 60.2915 47.0174 60.2915C46.9247 60.2915 46.8337 60.3158 46.7535 60.3621L40.7991 63.7058C40.7153 63.7533 40.6456 63.8221 40.5969 63.9051C40.5482 63.9881 40.5222 64.0825 40.5217 64.1787V70.8391C40.5222 70.9353 40.5482 71.0297 40.5969 71.1127C40.6456 71.1957 40.7153 71.2645 40.7991 71.312L46.7535 74.6557C46.8337 74.7019 46.9247 74.7263 47.0174 74.7263C47.11 74.7263 47.201 74.7019 47.2813 74.6557L53.2356 71.312C53.3194 71.2645 53.3892 71.1957 53.4379 71.1127C53.4866 71.0297 53.5125 70.9353 53.513 70.8391V70.8391Z" stroke="#1C1F35" stroke-linecap="round" stroke-linejoin="round"/>
<path d="M53.513 63.9002L47.079 67.5089L40.5217 63.9002" stroke="#1C1F35" stroke-linecap="round" stroke-linejoin="round"/>
<path d="M47.0173 67.5089V74.7263" stroke="#1C1F35" stroke-linecap="round" stroke-linejoin="round"/>
<path d="M37.5894 39.5931V33.8878H38.792C41.6266 33.8878 44.1813 35.5972 45.2626 38.2173L45.5454 38.9024C45.6812 39.2315 45.4392 39.5931 45.0832 39.5931H37.5894Z" fill="#FFD550" stroke="#1C1F35"/>
<path d="M16.0356 43.3967H37.5892" stroke="#1C1F35" stroke-linecap="round" stroke-linejoin="round"/>
<path d="M39.4911 53.5397C41.5917 53.5397 43.2946 51.8368 43.2946 49.7361C43.2946 47.6355 41.5917 45.9326 39.4911 45.9326C37.3904 45.9326 35.6875 47.6355 35.6875 49.7361C35.6875 51.8368 37.3904 53.5397 39.4911 53.5397Z" stroke="#1C1F35" stroke-linecap="round" stroke-linejoin="round"/>
<path d="M23.0089 53.5397C25.1095 53.5397 26.8125 51.8368 26.8125 49.7361C26.8125 47.6355 25.1095 45.9326 23.0089 45.9326C20.9082 45.9326 19.2053 47.6355 19.2053 49.7361C19.2053 51.8368 20.9082 53.5397 23.0089 53.5397Z" fill="#FFD550" stroke="#1C1F35" stroke-linecap="round" stroke-linejoin="round"/>
<path d="M35.6875 49.1019H26.8125" stroke="#1C1F35" stroke-linecap="round" stroke-linejoin="round"/>
<path d="M19.1736 49.1019H17.1133C16.8275 49.1019 16.5534 48.985 16.3513 48.7769C16.1492 48.5689 16.0356 48.2867 16.0356 47.9925V32.4612C16.0356 32.167 16.1492 31.8848 16.3513 31.6768C16.5534 31.4687 16.8275 31.3519 17.1133 31.3519H37.5892V46.2175" stroke="#1C1F35" stroke-linecap="round" stroke-linejoin="round"/>
<path d="M37.5894 39.5933H46.4644V48.0457C46.4644 48.3259 46.3475 48.5947 46.1394 48.7928C45.9314 48.9909 45.6492 49.1023 45.355 49.1023H43.2155" stroke="#1C1F35" stroke-linecap="round" stroke-linejoin="round"/>
<path d="M18.5715 39.1974L18.5715 33.8878" stroke="#1C1F35" stroke-linecap="round" stroke-linejoin="round"/>
<path d="M29.9821 40.861L35.2917 40.861" stroke="#1C1F35" stroke-linecap="round" stroke-linejoin="round"/>
<path d="M29.9822 51.5767L31.884 51.5767" stroke="#1C1F35" stroke-linecap="round" stroke-linejoin="round"/>
</svg>
